# Blender v2.79 (sub 0) OBJ File: ''
# www.blender.org
mtllib oil1.mtl
o Cube.001
v -0.100000 0.400000 0.030000
v -0.580000 0.400000 0.030000
v -0.580000 0.400000 0.510000
v -0.100000 0.400000 0.510000
v -0.100000 -0.560000 0.030000
v -0.100000 -0.560000 0.510000
v -0.580000 -0.560000 0.510000
v -0.580000 -0.560000 0.030000
vn 0.0000 1.0000 0.0000
vn 0.0000 -1.0000 -0.0000
vn 1.0000 0.0000 0.0000
vn 0.0000 -0.0000 1.0000
vn -1.0000 0.0000 0.0000
vn 0.0000 0.0000 -1.0000
usemtl Material.001
s 1
f 1//1 2//1 3//1 4//1
f 5//2 6//2 7//2 8//2
f 1//3 4//3 6//3 5//3
f 4//4 3//4 7//4 6//4
f 3//5 2//5 8//5 7//5
f 5//6 8//6 2//6 1//6
